<?xml version="1.0" encoding="UTF-8" standalone="no"?>
<!-- Created with Inkscape (http://www.inkscape.org/) -->

<svg
   width="210mm"
   height="297mm"
   viewBox="0 0 210 297"
   version="1.1"
   id="svg5"
   inkscape:version="1.1.2 (0a00cf5339, 2022-02-04)"
   sodipodi:docname="demodrawing.svg"
   xmlns:inkscape="http://www.inkscape.org/namespaces/inkscape"
   xmlns:sodipodi="http://sodipodi.sourceforge.net/DTD/sodipodi-0.dtd"
   xmlns="http://www.w3.org/2000/svg"
   xmlns:svg="http://www.w3.org/2000/svg">
  <sodipodi:namedview
     id="namedview7"
     pagecolor="#ffffff"
     bordercolor="#666666"
     borderopacity="1.0"
     inkscape:pageshadow="2"
     inkscape:pageopacity="0.0"
     inkscape:pagecheckerboard="0"
     inkscape:document-units="mm"
     showgrid="true"
     inkscape:snap-grids="true"
     inkscape:snap-bbox="true"
     inkscape:bbox-paths="false"
     inkscape:bbox-nodes="true"
     inkscape:zoom="1.0179639"
     inkscape:cx="145.38826"
     inkscape:cy="205.80297"
     inkscape:window-width="1846"
     inkscape:window-height="1016"
     inkscape:window-x="0"
     inkscape:window-y="0"
     inkscape:window-maximized="1"
     inkscape:current-layer="layer4">
    <inkscape:grid
       type="xygrid"
       id="grid993" />
  </sodipodi:namedview>
  <defs
     id="defs2">
    <inkscape:path-effect
       effect="powerclip"
       id="path-effect1955"
       is_visible="true"
       lpeversion="1"
       inverse="true"
       flatten="false"
       hide_clip="false"
       message="Use fill-rule evenodd on &lt;b&gt;fill and stroke&lt;/b&gt; dialog if no flatten result after convert clip to paths." />
    <inkscape:path-effect
       effect="powerclip"
       id="path-effect1947"
       is_visible="true"
       lpeversion="1"
       inverse="true"
       flatten="false"
       hide_clip="false"
       message="Use fill-rule evenodd on &lt;b&gt;fill and stroke&lt;/b&gt; dialog if no flatten result after convert clip to paths." />
    <inkscape:path-effect
       effect="powerclip"
       id="path-effect1939"
       is_visible="true"
       lpeversion="1"
       inverse="true"
       flatten="false"
       hide_clip="false"
       message="Use fill-rule evenodd on &lt;b&gt;fill and stroke&lt;/b&gt; dialog if no flatten result after convert clip to paths." />
    <inkscape:path-effect
       effect="powerclip"
       id="path-effect1931"
       is_visible="true"
       lpeversion="1"
       inverse="true"
       flatten="false"
       hide_clip="false"
       message="Use fill-rule evenodd on &lt;b&gt;fill and stroke&lt;/b&gt; dialog if no flatten result after convert clip to paths." />
    <inkscape:path-effect
       effect="powerclip"
       id="path-effect1923"
       is_visible="true"
       lpeversion="1"
       inverse="true"
       flatten="false"
       hide_clip="false"
       message="Use fill-rule evenodd on &lt;b&gt;fill and stroke&lt;/b&gt; dialog if no flatten result after convert clip to paths." />
    <inkscape:path-effect
       effect="powerclip"
       id="path-effect1915"
       is_visible="true"
       lpeversion="1"
       inverse="true"
       flatten="false"
       hide_clip="false"
       message="Use fill-rule evenodd on &lt;b&gt;fill and stroke&lt;/b&gt; dialog if no flatten result after convert clip to paths." />
    <inkscape:path-effect
       effect="powerclip"
       id="path-effect1907"
       is_visible="true"
       lpeversion="1"
       inverse="true"
       flatten="false"
       hide_clip="false"
       message="Use fill-rule evenodd on &lt;b&gt;fill and stroke&lt;/b&gt; dialog if no flatten result after convert clip to paths." />
    <inkscape:path-effect
       effect="powerclip"
       id="path-effect1899"
       is_visible="true"
       lpeversion="1"
       inverse="true"
       flatten="false"
       hide_clip="false"
       message="Use fill-rule evenodd on &lt;b&gt;fill and stroke&lt;/b&gt; dialog if no flatten result after convert clip to paths." />
    <clipPath
       clipPathUnits="userSpaceOnUse"
       id="clipPath1895">
      <path
         id="lpe_path-effect1899"
         style="fill:#ff0000;stroke-width:0.529"
         class="powerclip"
         d="M -2.3541668,-2.3541693 H 12.9375 V 12.937497 H -2.3541668 Z M 7.9375,5.2916648 A 2.6458333,2.6458333 0 0 0 5.2916667,7.9374981 2.6458333,2.6458333 0 0 0 7.9375,10.583331 2.6458333,2.6458333 0 0 0 10.583333,7.9374981 2.6458333,2.6458333 0 0 0 7.9375,5.2916648 Z" />
    </clipPath>
    <clipPath
       clipPathUnits="userSpaceOnUse"
       id="clipPath1903">
      <path
         id="lpe_path-effect1907"
         style="fill:#ff0000;stroke-width:0.529"
         class="powerclip"
         d="M 16.166669,-2.3541683 H 31.458336 V 12.937498 H 16.166669 Z m 5.000001,7.6458342 a 2.6458333,2.6458333 0 0 0 -2.645833,2.645833 2.6458333,2.6458333 0 0 0 2.645833,2.6458331 2.6458333,2.6458333 0 0 0 2.645833,-2.6458331 2.6458333,2.6458333 0 0 0 -2.645833,-2.645833 z" />
    </clipPath>
    <clipPath
       clipPathUnits="userSpaceOnUse"
       id="clipPath1911">
      <path
         id="lpe_path-effect1915"
         style="fill:#ff0000;stroke-width:0.529"
         class="powerclip"
         d="M 18.8125,8.229166 H 34.104167 V 23.520832 H 18.8125 Z m 10.291669,7.645832 A 2.6458333,2.6458333 0 0 0 31.75,13.229165 a 2.6458333,2.6458333 0 0 0 -2.645831,-2.645833 2.6458333,2.6458333 0 0 0 -2.645833,2.645833 2.6458333,2.6458333 0 0 0 2.645833,2.645833 z" />
    </clipPath>
    <clipPath
       clipPathUnits="userSpaceOnUse"
       id="clipPath1919">
      <path
         id="lpe_path-effect1923"
         style="fill:#ff0000;stroke-width:0.529"
         class="powerclip"
         d="M 42.625,10.875001 H 57.916667 V 26.166667 H 42.625 Z m 5,7.645834 A 2.6458333,2.6458333 0 0 0 44.979167,21.166668 2.6458333,2.6458333 0 0 0 47.625,23.812501 2.6458333,2.6458333 0 0 0 50.270833,21.166668 2.6458333,2.6458333 0 0 0 47.625,18.520835 Z" />
    </clipPath>
    <clipPath
       clipPathUnits="userSpaceOnUse"
       id="clipPath1927">
      <path
         id="lpe_path-effect1931"
         style="fill:#ff0000;stroke-width:0.529"
         class="powerclip"
         d="M -2.3541668,29.395834 H 12.9375 V 44.6875 H -2.3541668 Z M 7.9375,37.041664 A 2.6458333,2.6458333 0 0 0 10.583333,34.395831 2.6458333,2.6458333 0 0 0 7.9375,31.75 2.6458333,2.6458333 0 0 0 5.2916667,34.395831 2.6458333,2.6458333 0 0 0 7.9375,37.041664 Z" />
    </clipPath>
    <clipPath
       clipPathUnits="userSpaceOnUse"
       id="clipPath1935">
      <path
         id="lpe_path-effect1939"
         style="fill:#ff0000;stroke-width:0.529"
         class="powerclip"
         d="M 21.458333,32.041668 H 36.75 V 47.333334 H 21.458333 Z m 4.999999,7.645835 a 2.6458333,2.6458333 0 0 0 -2.645833,2.645833 2.6458333,2.6458333 0 0 0 2.645833,2.645833 2.6458333,2.6458333 0 0 0 2.645832,-2.645833 2.6458333,2.6458333 0 0 0 -2.645832,-2.645833 z" />
    </clipPath>
    <clipPath
       clipPathUnits="userSpaceOnUse"
       id="clipPath1943">
      <path
         id="lpe_path-effect1947"
         style="fill:#ff0000;stroke-width:0.529"
         class="powerclip"
         d="m 24.104166,95.54167 h 15.291667 v 15.29166 H 24.104166 Z m 10.291665,7.64582 a 2.6458333,2.6458333 0 0 0 2.645833,-2.64583 2.6458333,2.6458333 0 0 0 -2.645833,-2.645837 2.6458333,2.6458333 0 0 0 -2.645831,2.645837 2.6458333,2.6458333 0 0 0 2.645831,2.64583 z" />
    </clipPath>
    <clipPath
       clipPathUnits="userSpaceOnUse"
       id="clipPath1951">
      <path
         id="lpe_path-effect1955"
         style="fill:#ff0000;stroke-width:0.529"
         class="powerclip"
         d="m 42.624999,95.54167 h 15.291667 v 15.29166 H 42.624999 Z m 5.000001,7.64582 a 2.6458333,2.6458333 0 0 0 2.645833,-2.64583 2.6458333,2.6458333 0 0 0 -2.645833,-2.645837 2.6458333,2.6458333 0 0 0 -2.645833,2.645837 2.6458333,2.6458333 0 0 0 2.645833,2.64583 z" />
    </clipPath>
    <filter
       id="mask-powermask-path-effect3200_inverse"
       inkscape:label="filtermask-powermask-path-effect3200"
       style="color-interpolation-filters:sRGB"
       height="100"
       width="100"
       x="-50"
       y="-50">
      <feColorMatrix
         id="mask-powermask-path-effect3200_primitive1"
         values="1"
         type="saturate"
         result="fbSourceGraphic" />
      <feColorMatrix
         id="mask-powermask-path-effect3200_primitive2"
         values="-1 0 0 0 1 0 -1 0 0 1 0 0 -1 0 1 0 0 0 1 0 "
         in="fbSourceGraphic" />
    </filter>
  </defs>
  <g
     inkscape:groupmode="layer"
     id="layer3"
     inkscape:label="selection"
     style="display:inline">
    <path
       style="fill:#ffdd55;fill-opacity:1;stroke:none;stroke-width:0.264583px;stroke-linecap:butt;stroke-linejoin:miter;stroke-opacity:1"
       d="M 5.2916672,5.2916675 H 23.8125 L 26.458333,15.875 l 23.8125,2.645833 V 103.1875 H 31.75 l -2.645833,-63.5 -23.8124998,-2.645834 z"
       id="path3396"
       sodipodi:nodetypes="ccccccccc" />
    <g
       id="g3944"
       style="fill:#ff9955;fill-opacity:1;stroke:none;stroke-opacity:1">
      <path
         id="path2252"
         style="fill:#ff9955;fill-opacity:1;stroke:none;stroke-width:0.529;stroke-linejoin:miter;stroke-miterlimit:4;stroke-dasharray:none;stroke-opacity:1"
         d="M 52.916667,21.166667 H 47.625 v -5.291666 a 5.2916663,5.2916663 0 0 1 5.291667,5.291666 z"
         clip-path="url(#clipPath1919)" />
      <path
         id="path2249"
         style="fill:#ff9955;fill-opacity:1;stroke:none;stroke-width:0.529;stroke-linejoin:miter;stroke-miterlimit:4;stroke-dasharray:none;stroke-opacity:1"
         d="m 52.916666,100.54167 h -5.291667 v 5.29166 a 5.2916663,5.2916663 0 0 0 5.291667,-5.29166 z"
         clip-path="url(#clipPath1951)" />
      <path
         id="path2246"
         style="fill:#ff9955;fill-opacity:1;stroke:none;stroke-width:0.529;stroke-linejoin:miter;stroke-miterlimit:4;stroke-dasharray:none;stroke-opacity:1"
         d="m 29.104166,100.54167 h 5.291667 v 5.29166 a 5.2916663,5.2916663 0 0 1 -5.291667,-5.29166 z"
         clip-path="url(#clipPath1943)" />
      <path
         id="path2243"
         style="fill:#ff9955;fill-opacity:1;stroke:none;stroke-width:0.529;stroke-linejoin:miter;stroke-miterlimit:4;stroke-dasharray:none;stroke-opacity:1"
         d="M 26.458336,7.9374983 H 21.166669 V 2.6458317 a 5.2916663,5.2916663 0 0 1 5.291667,5.2916666 z"
         clip-path="url(#clipPath1903)" />
      <path
         id="path2240"
         style="fill:#ff9955;fill-opacity:1;stroke:none;stroke-width:0.529;stroke-linejoin:miter;stroke-miterlimit:4;stroke-dasharray:none;stroke-opacity:1"
         d="M 2.6458332,7.9374973 H 7.9374998 V 2.6458307 A 5.2916663,5.2916663 0 0 0 2.6458332,7.9374973 Z"
         clip-path="url(#clipPath1895)" />
      <path
         id="path2237"
         style="fill:#ff9955;fill-opacity:1;stroke:none;stroke-width:0.529;stroke-linejoin:miter;stroke-miterlimit:4;stroke-dasharray:none;stroke-opacity:1"
         d="M 2.6458332,34.395834 H 7.9374998 V 39.6875 A 5.2916663,5.2916663 0 0 1 2.6458332,34.395834 Z"
         clip-path="url(#clipPath1927)" />
      <path
         id="path2234"
         style="fill:#ff9955;fill-opacity:1;stroke:none;stroke-width:0.529;stroke-linejoin:miter;stroke-miterlimit:4;stroke-dasharray:none;stroke-opacity:1"
         d="M 31.75,42.333334 H 26.458333 V 37.041668 A 5.2916663,5.2916663 0 0 1 31.75,42.333334 Z"
         clip-path="url(#clipPath1935)" />
      <path
         id="path2231"
         style="fill:#ff9955;fill-opacity:1;stroke:none;stroke-width:0.529;stroke-linejoin:miter;stroke-miterlimit:4;stroke-dasharray:none;stroke-opacity:1"
         d="m 23.8125,13.229166 h 5.291667 v 5.291666 A 5.2916663,5.2916663 0 0 1 23.8125,13.229166 Z"
         clip-path="url(#clipPath1911)" />
      <path
         style="display:inline;fill:#ff9955;fill-opacity:1;stroke:none;stroke-width:0.512363px;stroke-linecap:butt;stroke-linejoin:miter;stroke-opacity:1"
         d="m 50.270834,21.166666 h 2.645833 v 79.375004 h -2.645833 z"
         id="path2228" />
      <path
         style="display:inline;fill:#ff9955;fill-opacity:1;stroke:none;stroke-width:0.438761px;stroke-linecap:butt;stroke-linejoin:miter;stroke-opacity:1"
         d="M 29.104167,42.333333 H 31.75 v 58.208337 h -2.645833 z"
         id="path2225" />
      <path
         style="display:inline;fill:#ff9955;fill-opacity:1;stroke:none;stroke-width:0.295813px;stroke-linecap:butt;stroke-linejoin:miter;stroke-opacity:1"
         d="m 2.6458337,7.9374997 h 2.645833 V 34.395833 h -2.645833 z"
         id="path2222" />
      <path
         style="display:inline;fill:#ff9955;fill-opacity:1;stroke:none;stroke-width:0.132292px;stroke-linecap:butt;stroke-linejoin:miter;stroke-opacity:1"
         d="m 23.8125,7.9374997 h 2.645833 V 13.229167 H 23.8125 Z"
         id="path2219" />
      <path
         style="display:inline;fill:#ff9955;fill-opacity:1;stroke:none;stroke-width:0.209172px;stroke-linecap:butt;stroke-linejoin:miter;stroke-opacity:1"
         d="M 7.9375002,5.2916667 V 2.6458333 H 21.166667 v 2.6458334 z"
         id="path2216" />
      <path
         style="display:inline;fill:#ff9955;fill-opacity:1;stroke:none;stroke-width:0.247496px;stroke-linecap:butt;stroke-linejoin:miter;stroke-opacity:1"
         d="M 29.104167,18.520833 V 15.875 H 47.625 v 2.645833 z"
         id="path2213" />
      <path
         style="display:inline;fill:#ff9955;fill-opacity:1;stroke:none;stroke-width:0.247496px;stroke-linecap:butt;stroke-linejoin:miter;stroke-opacity:1"
         d="M 7.9375,39.6875 V 37.041667 H 26.458333 V 39.6875 Z"
         id="path2210" />
      <path
         style="display:inline;fill:#ff9955;fill-opacity:1;stroke:none;stroke-width:0.209172px;stroke-linecap:butt;stroke-linejoin:miter;stroke-opacity:1"
         d="M 34.395834,105.83333 V 103.1875 H 47.625 v 2.64583 z"
         id="path2207" />
    </g>
  </g>
  <g
     inkscape:label="Path"
     inkscape:groupmode="layer"
     id="layer1"
     style="display:inline">
    <path
       style="fill:#0000ff;fill-opacity:1;stroke:none;stroke-width:0.280633px;stroke-linecap:butt;stroke-linejoin:miter;stroke-opacity:1"
       d="M 13.229167,15.875 H 15.875 v 23.8125 h -2.645833 z"
       id="path2408" />
    <path
       style="fill:#0000ff;fill-opacity:1;stroke:none;stroke-width:0.280633px;stroke-linecap:butt;stroke-linejoin:miter;stroke-opacity:1"
       d="M 13.229167,42.333333 H 15.875 v 23.8125 h -2.645833 z"
       id="path2572" />
    <path
       style="fill:#0000ff;fill-opacity:1;stroke:none;stroke-width:0.280633px;stroke-linecap:butt;stroke-linejoin:miter;stroke-opacity:1"
       d="M 13.229167,68.791667 H 15.875 v 23.8125 h -2.645833 z"
       id="path2706" />
    <path
       style="fill:#0000ff;fill-opacity:1;stroke:none;stroke-width:0.280633px;stroke-linecap:butt;stroke-linejoin:miter;stroke-opacity:1"
       d="M 13.229167,95.25 H 15.875 v 23.8125 h -2.645833 z"
       id="path2708" />
    <path
       style="fill:#0000ff;fill-opacity:1;stroke:none;stroke-width:0.280633px;stroke-linecap:butt;stroke-linejoin:miter;stroke-opacity:1"
       d="m 39.687505,42.333329 h 2.645833 v 23.8125 h -2.645833 z"
       id="path2710" />
    <path
       style="fill:#0000ff;fill-opacity:1;stroke:none;stroke-width:0.280633px;stroke-linecap:butt;stroke-linejoin:miter;stroke-opacity:1"
       d="m 39.687505,68.791662 h 2.645833 v 23.8125 h -2.645833 z"
       id="path2718" />
    <path
       style="fill:#0000ff;fill-opacity:1;stroke:none;stroke-width:0.280633px;stroke-linecap:butt;stroke-linejoin:miter;stroke-opacity:1"
       d="M 13.229167,121.70833 H 15.875 v 23.8125 h -2.645833 z"
       id="path2722" />
    <path
       style="fill:#0000ff;fill-opacity:1;stroke:none;stroke-width:0.280633px;stroke-linecap:butt;stroke-linejoin:miter;stroke-opacity:1"
       d="M 13.229167,148.16667 H 15.875 v 23.8125 h -2.645833 z"
       id="path2724" />
    <path
       style="fill:#0000ff;fill-opacity:1;stroke:none;stroke-width:0.280633px;stroke-linecap:butt;stroke-linejoin:miter;stroke-opacity:1"
       d="m 39.6875,148.16667 h 2.645833 v 23.8125 H 39.6875 Z"
       id="path2831" />
    <path
       style="fill:#0000ff;fill-opacity:1;stroke:none;stroke-width:0.280633px;stroke-linecap:butt;stroke-linejoin:miter;stroke-opacity:1"
       d="m 39.687505,174.625 h 2.645833 v 23.8125 h -2.645833 z"
       id="path2837" />
    <path
       style="fill:#0000ff;fill-opacity:1;stroke:none;stroke-width:0.280633px;stroke-linecap:butt;stroke-linejoin:miter;stroke-opacity:1"
       d="m 13.229167,29.104166 v -2.645833 h 23.8125 v 2.645833 z"
       id="path2843" />
    <path
       style="fill:#0000ff;fill-opacity:1;stroke:none;stroke-width:0.162024px;stroke-linecap:butt;stroke-linejoin:miter;stroke-opacity:1"
       d="m 39.6875,31.75 h 2.645833 v 7.9375 H 39.6875 Z"
       id="path4631" />
    <path
       id="path4547"
       style="fill:#0000ff;fill-opacity:1;stroke:none;stroke-width:1.99937;stroke-linejoin:miter;stroke-miterlimit:4;stroke-dasharray:none;stroke-opacity:1"
       d="m 140,100 v 10 a 9.9999997,9.9999997 0 0 1 10,10 h 10 a 19.999999,19.999999 0 0 0 -20,-20 z"
       transform="scale(0.26458333)" />
    <path
       style="display:inline;fill:#0000ff;fill-opacity:1;stroke:none;stroke-width:0.294147px;stroke-linecap:butt;stroke-linejoin:miter;stroke-opacity:1"
       d="m 37.041667,29.104167 v -2.645833 h 26.16117 v 2.645833 z"
       id="path4986" />
    <path
       style="display:inline;fill:#0000ff;fill-opacity:1;stroke:none;stroke-width:0.162024px;stroke-linecap:butt;stroke-linejoin:miter;stroke-opacity:1"
       d="m 65.848671,31.750001 h 2.645833 v 7.9375 h -2.645833 z"
       id="path4988" />
    <path
       id="path4990"
       style="fill:#0000ff;fill-opacity:1;stroke:none;stroke-width:1.99937;stroke-linejoin:miter;stroke-miterlimit:4;stroke-dasharray:none;stroke-opacity:1"
       d="m 238.87695,100 v 10 a 9.9999997,9.9999997 0 0 1 10,10 h 10 a 19.999999,19.999999 0 0 0 -20,-20 z"
       transform="scale(0.26458333)" />
    <path
       style="display:inline;fill:#0000ff;fill-opacity:1;stroke:none;stroke-width:0.280632px;stroke-linecap:butt;stroke-linejoin:miter;stroke-opacity:1"
       d="m 13.229167,134.9375 v -2.64583 h 23.8125 v 2.64583 z"
       id="path5090" />
    <path
       style="display:inline;fill:#0000ff;fill-opacity:1;stroke:none;stroke-width:0.162024px;stroke-linecap:butt;stroke-linejoin:miter;stroke-opacity:1"
       d="m 39.687501,137.58334 h 2.645833 v 7.9375 h -2.645833 z"
       id="path5092" />
    <path
       id="path5094"
       style="fill:#0000ff;fill-opacity:1;stroke:none;stroke-width:1.99937;stroke-linejoin:miter;stroke-miterlimit:4;stroke-dasharray:none;stroke-opacity:1"
       d="m 140,500 v 10 a 9.9999997,9.9999997 0 0 1 10,10 h 10 a 19.999999,19.999999 0 0 0 -20,-20 z"
       transform="scale(0.26458333)" />
    <path
       style="display:inline;fill:#0000ff;fill-opacity:1;stroke:none;stroke-width:0.154579px;stroke-linecap:butt;stroke-linejoin:miter;stroke-opacity:1"
       d="m 15.756233,15.875 h -2.408299 v 7.9375 h 2.408299 z"
       id="path5188" />
    <path
       style="display:inline;fill:#0000ff;fill-opacity:1;stroke:none;stroke-width:0.162024px;stroke-linecap:butt;stroke-linejoin:miter;stroke-opacity:1"
       d="m 18.520834,26.458334 v 2.645833 h 7.9375 v -2.645833 z"
       id="path5190" />
    <path
       id="path5192"
       style="fill:#0000ff;fill-opacity:1;stroke:none;stroke-width:1.99937;stroke-linejoin:miter;stroke-miterlimit:4;stroke-dasharray:none;stroke-opacity:1"
       d="m 50,90 a 19.999999,19.999999 0 0 0 20,20 V 100 A 9.9999997,9.9999997 0 0 1 60,90 Z"
       transform="scale(0.26458333)" />
    <path
       style="display:inline;fill:#0000ff;fill-opacity:1;stroke:none;stroke-width:0.154579px;stroke-linecap:butt;stroke-linejoin:miter;stroke-opacity:1"
       d="m 15.756233,121.70833 h -2.408299 v 7.9375 h 2.408299 z"
       id="path5200" />
    <path
       style="display:inline;fill:#0000ff;fill-opacity:1;stroke:none;stroke-width:0.162024px;stroke-linecap:butt;stroke-linejoin:miter;stroke-opacity:1"
       d="m 18.520834,132.29167 v 2.64583 h 7.9375 v -2.64583 z"
       id="path5202" />
    <path
       id="path5204"
       style="fill:#0000ff;fill-opacity:1;stroke:none;stroke-width:1.99937;stroke-linejoin:miter;stroke-miterlimit:4;stroke-dasharray:none;stroke-opacity:1"
       d="m 50,490 a 19.999999,19.999999 0 0 0 20,20 V 500 A 9.9999997,9.9999997 0 0 1 60,490 Z"
       transform="scale(0.26458333)" />
  </g>
  <g
     inkscape:groupmode="layer"
     id="layer2"
     inkscape:label="Nodes"
     style="display:inline">
    <g
       id="g2164"
       style="display:inline">
      <circle
         style="fill:#0000ff;fill-opacity:1;stroke:#0000ff;stroke-width:1.20265;stroke-linejoin:round;stroke-miterlimit:4;stroke-dasharray:none;stroke-opacity:1"
         id="circle2158"
         cx="14.552087"
         cy="14.552081"
         r="6.0132561" />
      <circle
         style="fill:none;stroke:#ffffff;stroke-width:2.122;stroke-linejoin:round;stroke-miterlimit:4;stroke-dasharray:none;stroke-opacity:1"
         id="circle2160"
         cx="14.552083"
         cy="14.552083"
         r="3.607955" />
    </g>
    <circle
       style="display:inline;fill:#0000ff;fill-opacity:1;stroke:#0000ff;stroke-width:1.20265;stroke-linejoin:round;stroke-miterlimit:4;stroke-dasharray:none;stroke-opacity:1"
       id="circle2568"
       cx="14.552081"
       cy="41.010418"
       r="6.0132561" />
    <circle
       style="display:inline;fill:#fbfbff;fill-opacity:1;stroke:#0000ff;stroke-width:1.20265;stroke-linejoin:round;stroke-miterlimit:4;stroke-dasharray:none;stroke-opacity:1"
       id="circle2700"
       cx="14.552081"
       cy="67.46875"
       r="6.0132561" />
    <circle
       style="display:inline;fill:#0000ff;fill-opacity:1;stroke:#0000ff;stroke-width:1.20265;stroke-linejoin:round;stroke-miterlimit:4;stroke-dasharray:none;stroke-opacity:1"
       id="circle2702"
       cx="14.552081"
       cy="93.927086"
       r="6.0132561" />
    <circle
       style="display:inline;fill:#fbfbff;fill-opacity:1;stroke:#0000ff;stroke-width:1.20265;stroke-linejoin:round;stroke-miterlimit:4;stroke-dasharray:none;stroke-opacity:1"
       id="circle2704"
       cx="14.552081"
       cy="120.38541"
       r="6.0132561" />
    <circle
       style="display:inline;fill:#0000ff;fill-opacity:1;stroke:#0000ff;stroke-width:1.20265;stroke-linejoin:round;stroke-miterlimit:4;stroke-dasharray:none;stroke-opacity:1"
       id="circle2712"
       cx="41.010418"
       cy="41.010414"
       r="6.0132561" />
    <circle
       style="display:inline;fill:#fbfbff;fill-opacity:1;stroke:#0000ff;stroke-width:1.20265;stroke-linejoin:round;stroke-miterlimit:4;stroke-dasharray:none;stroke-opacity:1"
       id="circle2714"
       cx="41.010418"
       cy="67.46875"
       r="6.0132561" />
    <circle
       style="display:inline;fill:#0000ff;fill-opacity:1;stroke:#0000ff;stroke-width:1.20265;stroke-linejoin:round;stroke-miterlimit:4;stroke-dasharray:none;stroke-opacity:1"
       id="circle2716"
       cx="67.46875"
       cy="41.010418"
       r="6.0132561" />
    <circle
       style="display:inline;fill:#0000ff;fill-opacity:1;stroke:#0000ff;stroke-width:1.20265;stroke-linejoin:round;stroke-miterlimit:4;stroke-dasharray:none;stroke-opacity:1"
       id="circle2720"
       cx="41.010418"
       cy="93.927078"
       r="6.0132561" />
    <circle
       style="display:inline;fill:#0000ff;fill-opacity:1;stroke:#0000ff;stroke-width:1.20265;stroke-linejoin:round;stroke-miterlimit:4;stroke-dasharray:none;stroke-opacity:1"
       id="circle2726"
       cx="14.552081"
       cy="146.84375"
       r="6.0132561" />
    <circle
       style="display:inline;fill:#fbfbff;fill-opacity:1;stroke:#0000ff;stroke-width:1.20265;stroke-linejoin:round;stroke-miterlimit:4;stroke-dasharray:none;stroke-opacity:1"
       id="circle2728"
       cx="14.552081"
       cy="173.30208"
       r="6.0132561" />
    <circle
       style="display:inline;fill:#0000ff;fill-opacity:1;stroke:#0000ff;stroke-width:1.20265;stroke-linejoin:round;stroke-miterlimit:4;stroke-dasharray:none;stroke-opacity:1"
       id="circle2833"
       cx="41.010414"
       cy="146.84375"
       r="6.0132561" />
    <circle
       style="display:inline;fill:#fbfbff;fill-opacity:1;stroke:#0000ff;stroke-width:1.20265;stroke-linejoin:round;stroke-miterlimit:4;stroke-dasharray:none;stroke-opacity:1"
       id="circle2835"
       cx="41.010414"
       cy="173.30208"
       r="6.0132561" />
    <circle
       style="display:inline;fill:#0000ff;fill-opacity:1;stroke:#0000ff;stroke-width:1.20265;stroke-linejoin:round;stroke-miterlimit:4;stroke-dasharray:none;stroke-opacity:1"
       id="circle2839"
       cx="41.010418"
       cy="199.76042"
       r="6.0132561" />
    <ellipse
       style="display:inline;fill:none;fill-opacity:1;stroke:#d45500;stroke-width:3.12822;stroke-linejoin:round;stroke-miterlimit:4;stroke-dasharray:3.12822, 3.12822;stroke-dashoffset:0.625642;stroke-opacity:1"
       id="circle4214"
       cx="41.008862"
       cy="93.917511"
       rx="15.635364"
       ry="15.643491" />
  </g>
  <g
     inkscape:groupmode="layer"
     id="layer4"
     inkscape:label="Pieces"
     style="display:none">
    <g
       id="g4545"
       transform="translate(18.520834,-34.395833)"
       style="display:inline">
      <path
         id="path4232"
         style="fill:#0000ff;fill-opacity:1;stroke:none;stroke-width:1.99937;stroke-linejoin:miter;stroke-miterlimit:4;stroke-dasharray:none;stroke-opacity:1"
         d="m 190,40 v 20 h 20 A 19.999999,19.999999 0 0 0 190,40 Z"
         transform="scale(0.26458333)" />
      <circle
         style="fill:#ffffff;fill-opacity:1;stroke:none;stroke-width:0.529;stroke-linejoin:miter;stroke-miterlimit:4;stroke-dasharray:none;stroke-opacity:1"
         id="path4418"
         cx="50.270832"
         cy="15.875"
         r="2.6458333" />
    </g>
    <g
       id="g4660"
       transform="translate(2.6458327,-44.979167)"
       style="display:inline">
      <path
         style="display:inline;fill:#0000ff;fill-opacity:1;stroke:none;stroke-width:0.295813px;stroke-linecap:butt;stroke-linejoin:miter;stroke-opacity:1"
         d="M 55.562501,10.583333 V 7.9374997 h 26.458333 v 2.6458333 z"
         id="path4633" />
      <path
         style="display:inline;fill:#0000ff;fill-opacity:1;stroke:none;stroke-width:0.162024px;stroke-linecap:butt;stroke-linejoin:miter;stroke-opacity:1"
         d="m 84.666668,13.229167 h 2.645833 v 7.9375 h -2.645833 z"
         id="path4635" />
      <g
         id="g4641"
         transform="translate(31.750001,-2.6458332)">
        <path
           id="path4637"
           style="fill:#0000ff;fill-opacity:1;stroke:none;stroke-width:1.99937;stroke-linejoin:miter;stroke-miterlimit:4;stroke-dasharray:none;stroke-opacity:1"
           d="m 190,40 v 20 h 20 A 19.999999,19.999999 0 0 0 190,40 Z"
           transform="scale(0.26458333)" />
        <circle
           style="fill:#ffffff;fill-opacity:1;stroke:none;stroke-width:0.529;stroke-linejoin:miter;stroke-miterlimit:4;stroke-dasharray:none;stroke-opacity:1"
           id="circle4639"
           cx="50.270832"
           cy="15.875"
           r="2.6458333" />
      </g>
    </g>
    <g
       id="g5088"
       transform="translate(2.6458327,-44.979167)"
       style="display:inline">
      <path
         style="display:inline;fill:#0000ff;fill-opacity:1;stroke:none;stroke-width:0.280632px;stroke-linecap:butt;stroke-linejoin:miter;stroke-opacity:1"
         d="M 58.208334,10.583333 V 7.9374997 h 23.8125 v 2.6458333 z"
         id="path5078" />
      <path
         style="display:inline;fill:#0000ff;fill-opacity:1;stroke:none;stroke-width:0.162024px;stroke-linecap:butt;stroke-linejoin:miter;stroke-opacity:1"
         d="m 84.666668,13.229167 h 2.645833 v 7.9375 h -2.645833 z"
         id="path5080" />
      <g
         id="g5086"
         transform="translate(31.750001,-2.6458332)">
        <path
           id="path5082"
           style="fill:#0000ff;fill-opacity:1;stroke:none;stroke-width:1.99937;stroke-linejoin:miter;stroke-miterlimit:4;stroke-dasharray:none;stroke-opacity:1"
           d="m 190,40 v 20 h 20 A 19.999999,19.999999 0 0 0 190,40 Z"
           transform="scale(0.26458333)" />
        <circle
           style="fill:#ffffff;fill-opacity:1;stroke:none;stroke-width:0.529;stroke-linejoin:miter;stroke-miterlimit:4;stroke-dasharray:none;stroke-opacity:1"
           id="circle5084"
           cx="50.270832"
           cy="15.875"
           r="2.6458333" />
      </g>
    </g>
    <g
       id="g5186"
       transform="matrix(0,1,1,0,87.3125,-103.1875)"
       style="display:inline">
      <path
         style="display:inline;fill:#0000ff;fill-opacity:1;stroke:none;stroke-width:0.162023px;stroke-linecap:butt;stroke-linejoin:miter;stroke-opacity:1"
         d="M 74.083334,10.583333 V 7.9375 h 7.9375 v 2.645833 z"
         id="path5176" />
      <path
         style="display:inline;fill:#0000ff;fill-opacity:1;stroke:none;stroke-width:0.162024px;stroke-linecap:butt;stroke-linejoin:miter;stroke-opacity:1"
         d="m 84.666668,13.229167 h 2.645833 v 7.9375 h -2.645833 z"
         id="path5178" />
      <g
         id="g5184"
         transform="translate(31.750001,-2.6458332)">
        <path
           id="path5180"
           style="fill:#0000ff;fill-opacity:1;stroke:none;stroke-width:1.99937;stroke-linejoin:miter;stroke-miterlimit:4;stroke-dasharray:none;stroke-opacity:1"
           d="m 190,40 v 20 h 20 A 19.999999,19.999999 0 0 0 190,40 Z"
           transform="scale(0.26458333)" />
        <circle
           style="fill:#ffffff;fill-opacity:1;stroke:none;stroke-width:0.529;stroke-linejoin:miter;stroke-miterlimit:4;stroke-dasharray:none;stroke-opacity:1"
           id="circle5182"
           cx="50.270832"
           cy="15.875"
           r="2.6458333" />
      </g>
    </g>
    <g
       id="g2168"
       style="display:inline"
       transform="translate(-3.3333341e-8,-10.583333)">
      <ellipse
         style="fill:#0000ff;stroke-width:7.518;stroke-linejoin:round"
         id="path1177"
         cx="6.6145835"
         cy="-9.260417"
         rx="3.9687502"
         ry="3.96875" />
      <circle
         style="fill:none;stroke:#0000ff;stroke-width:1.20265;stroke-linejoin:round;stroke-miterlimit:4;stroke-dasharray:none;stroke-opacity:1"
         id="circle1259"
         cx="6.6145835"
         cy="-9.260417"
         r="6.0132561" />
    </g>
    <circle
       style="display:inline;fill:#fbfbff;fill-opacity:1;stroke:#0000ff;stroke-width:1.20265;stroke-linejoin:round;stroke-miterlimit:4;stroke-dasharray:none;stroke-opacity:1"
       id="circle1578"
       cx="22.48958"
       cy="-19.843752"
       r="6.0132561" />
    <circle
       style="display:inline;fill:#0000ff;fill-opacity:1;stroke:#0000ff;stroke-width:1.20265;stroke-linejoin:round;stroke-miterlimit:4;stroke-dasharray:none;stroke-opacity:1"
       id="circle1998"
       cx="38.364586"
       cy="-19.843752"
       r="6.0132561" />
    <g
       id="g2172"
       style="display:inline"
       transform="translate(-3.3333341e-8,-10.583333)">
      <circle
         style="fill:#0000ff;fill-opacity:1;stroke:#0000ff;stroke-width:1.20265;stroke-linejoin:round;stroke-miterlimit:4;stroke-dasharray:none;stroke-opacity:1"
         id="circle2074"
         cx="54.239586"
         cy="-9.2604189"
         r="6.0132561" />
      <circle
         style="fill:none;stroke:#ffffff;stroke-width:0.72159;stroke-linejoin:round;stroke-miterlimit:4;stroke-dasharray:none;stroke-opacity:1"
         id="circle2076"
         cx="54.239582"
         cy="-9.260417"
         r="3.607955" />
    </g>
    <path
       style="display:inline;fill:#0000ff;fill-opacity:1;stroke:none;stroke-width:0.280633px;stroke-linecap:butt;stroke-linejoin:miter;stroke-opacity:1"
       d="m -37.041667,2.645833 h 2.645833 v 23.8125 h -2.645833 z"
       id="path2570" />
    <path
       style="display:inline;fill:#0000ff;fill-opacity:1;stroke:none;stroke-width:0.280633px;stroke-linecap:butt;stroke-linejoin:miter;stroke-opacity:1"
       d="m -52.916667,44.979166 v -2.645833 h 23.8125 v 2.645833 z"
       id="path2841" />
  </g>
</svg>
