<?xml version="1.0" encoding="UTF-8" standalone="no"?>
<svg
   fill="none"
   viewBox="0 0 21 21"
   stroke-width="1.5"
   stroke="currentColor"
   class="w-6 h-6"
   version="1.1"
   id="svg880"
   sodipodi:docname="logo.svg"
   inkscape:version="1.1.2 (0a00cf5339, 2022-02-04)"
   width="21"
   height="21"
   xmlns:inkscape="http://www.inkscape.org/namespaces/inkscape"
   xmlns:sodipodi="http://sodipodi.sourceforge.net/DTD/sodipodi-0.dtd"
   xmlns="http://www.w3.org/2000/svg"
   xmlns:svg="http://www.w3.org/2000/svg">
  <defs
     id="defs884" />
  <sodipodi:namedview
     id="namedview882"
     pagecolor="#ffffff"
     bordercolor="#666666"
     borderopacity="1.0"
     inkscape:pageshadow="2"
     inkscape:pageopacity="0.0"
     inkscape:pagecheckerboard="0"
     showgrid="false"
     inkscape:zoom="34.708333"
     inkscape:cx="10.501801"
     inkscape:cy="9.7527012"
     inkscape:window-width="1846"
     inkscape:window-height="1016"
     inkscape:window-x="0"
     inkscape:window-y="0"
     inkscape:window-maximized="1"
     inkscape:current-layer="svg880" />
  <path
     d="m 18.75,6.376246 v -1.874 c 0,-1.621 -1.152,-3.026 -2.76,-3.235 C 13.920825,0.99903808 11.836486,0.8650041 9.75,0.8652461 7.635,0.8654921 5.551977,1.0020691 3.51,1.267246 c -1.608023,0.208823 -2.76,1.614 -2.76,3.235 v 6.226002 c 0,1.621 1.152,3.026 2.76,3.235 0.577,0.075 1.157,0.14 1.74,0.194 v 4.708 l 4.155,-4.155"
     id="path2691"
     style="fill:#6b6bff;fill-opacity:1" />
  <path
     id="path878"
     d="m 18.75,6.376246 c 0.884,0.284 1.5,1.128 1.5,2.097 v 4.286002 c 0,1.136 -0.847,2.1 -1.98,2.193 -0.34,0.027 -0.68,0.052 -1.02,0.072 v 3.091 l -3,-3 c -1.354,0 -2.694,-0.055 -4.02,-0.163 -0.288668,-0.02333 -0.569469,-0.1057 -0.825,-0.242 M 18.75,6.376246 c -0.15452,-0.04973 -0.314227,-0.08161 -0.476,-0.095 -2.678061,-0.222319 -5.369939,-0.222319 -8.048,0 -1.131,0.094 -1.976,1.057 -1.976,2.192 v 4.286002 c 0,0.837 0.46,1.58 1.155,1.951"
     style="fill:#ff7f2a;fill-opacity:1" />
</svg>
